<svg xmlns="http://www.w3.org/2000/svg" viewBox="0 0 48 48"><path fill="none" d="M0 0h48v48H0z"></path><path d="m43.109 14.336-12-8a2 2 0 0 0-.151-.08 2 2 0 0 0-.19-.1 2 2 0 0 0-.255-.079c-.04-.011-.077-.027-.118-.035A2 2 0 0 0 29.981 6h-12a2 2 0 0 0-.378.039c-.05.01-.1.029-.145.042a1.4 1.4 0 0 0-.49.211c-.027.016-.055.025-.081.043h-.008L4.891 14.336A2 2 0 0 0 6 18h10v5.528L8.211 39.106a2 2 0 0 0 2.649 2.7L24 35.549l13.14 6.258a2 2 0 0 0 2.649-2.7L32 23.528V18h10a2 2 0 0 0 1.109-3.664M20 10h8v4h-8Zm-7.394 4L16 11.738V14Zm16.158 12 1.151 2.3L24 31.119 18.085 28.3l1.151-2.3Zm-14.375 9.7 1.911-3.819 3.052 1.453Zm14.263-2.362 3.048-1.457 1.911 3.819ZM28 22h-8v-4h8Zm4-8v-2.263L35.4 14Z"></path></svg>
