<svg xmlns="http://www.w3.org/2000/svg" viewBox="0 0 640 640" width="640" height="640">
  <path fill="#000000" d="m335.9 68.2c-9.8-5.6-21.9-5.6-31.8 0l-224 128c-9.9 5.7-16.1 16.3-16.1 27.8v320c0 17.7 14.3 32 32 32 17.7 0 32-14.3 32-32v-301.4l192-109.7 192 109.7v301.4c0 17.7 14.3 32 32 32 17.7 0 32-14.3 32-32v-320c0-11.5-6.2-22.1-16.1-27.8zM254.771 322.23L240.782 362.216L398.258 362.216L384.269 322.23C381.857 315.37 375.371 310.76 368.082 310.76L270.958 310.76C263.669 310.76 257.183 315.37 254.771 322.23zM203.53 364.789L222.397 310.921C229.633 290.285 249.09 276.456 270.958 276.456L368.082 276.456C389.95 276.456 409.407 290.285 416.643 310.921L435.51 364.789C447.946 369.934 456.736 382.209 456.736 396.52L456.736 499.432C456.736 508.919 449.071 516.584 439.584 516.584L422.432 516.584C412.945 516.584 405.28 508.919 405.28 499.432L405.28 482.28L233.76 482.28L233.76 499.432C233.76 508.919 226.095 516.584 216.608 516.584L199.456 516.584C189.969 516.584 182.304 508.919 182.304 499.432L182.304 396.52C182.304 382.209 191.094 369.934 203.53 364.789zM250.912 422.248C250.912 412.761 243.247 405.096 233.76 405.096C224.273 405.096 216.608 412.761 216.608 422.248C216.608 431.735 224.273 439.4 233.76 439.4C243.247 439.4 250.912 431.735 250.912 422.248zM405.28 439.4C414.767 439.4 422.432 431.735 422.432 422.248C422.432 412.761 414.767 405.096 405.28 405.096C395.793 405.096 388.128 412.761 388.128 422.248C388.128 431.735 395.793 439.4 405.28 439.4z"/>
</svg>