<svg version="1.2" xmlns="http://www.w3.org/2000/svg" viewBox="0 0 640 640" width="150" height="150">
	<style>
		.s0 { fill: #000000 } 
	</style>
	<path class="s0" d="m128 544c0 44.2 35.8 80 80 80h224c44.2 0 80-35.8 80-80v-416c0-44.2-35.8-80-80-80h-48c0-17.7-14.3-32-32-32h-64c-17.7 0-32 14.3-32 32h-48c-44.2 0-80 35.8-80 80zm64-416c0-8.8 7.2-16 16-16h224c8.8 0 16 7.2 16 16v416c0 8.8-7.2 16-16 16h-224c-8.8 0-16-7.2-16-16zm48 360c0 13.3 10.7 24 24 24h112c13.3 0 24-10.7 24-24v-224c0-13.3-10.7-24-24-24h-112c-13.3 0-24 10.7-24 24z"/>
</svg>