<svg version="1.2" xmlns="http://www.w3.org/2000/svg" viewBox="0 0 1024 1024" width="1024" height="1024">
	<style>
		.s0 { fill: #ffffff }
	</style>
	<path class="s0" d="m495.56 140.16h192.4c6.93 0 13.37 3.59 17.01 9.49 3.65 5.9 3.98 13.26 0.88 19.46l-113.8 227.58h95.91c7.03 0 13.55 3.7 17.16 9.74 3.62 6.04 3.79 13.53 0.46 19.73l-241.01 448.79c-4.61 8.58-14.72 12.59-23.95 9.52-9.23-3.08-14.91-12.36-13.45-21.98l45.13-297.14h-137.07c-6.69 0-12.93-3.34-16.64-8.91-3.71-5.56-4.39-12.61-1.82-18.78l160.33-385.18c3.1-7.46 10.38-12.32 18.46-12.32z"/>
</svg>