<svg xmlns="http://www.w3.org/2000/svg" viewBox="0 0 1024 1024">
  <rect x="-16" y="0" width="1083" height="1047" fill="#1C2445"/>
  <path fill="#0FDD42" d="M495.562,140.165L687.959,140.165C694.891,140.165 701.328,143.754 704.972,149.65C708.616,155.546 708.948,162.909 705.848,169.109L592.055,396.694L687.959,396.694C694.995,396.694 701.513,400.391 705.124,406.429C708.735,412.467 708.908,419.958 705.579,426.156L464.566,874.953C459.961,883.527 449.853,887.542 440.621,884.465C431.388,881.387 425.711,872.11 427.172,862.488L472.296,565.346L335.231,565.346C328.545,565.346 322.302,562.006 318.592,556.443C314.883,550.881 314.198,543.833 316.767,537.661L477.098,152.479C480.202,145.022 487.485,140.165 495.562,140.165Z"/>
</svg>
